<svg xmlns="http://www.w3.org/2000/svg" width="128.37" height="128.37" viewBox="0 0 128.37 128.37">
  <g id="Group_1385" data-name="Group 1385" transform="translate(-1429.576 -3462.075)">
    <g id="Polygon_8" data-name="Polygon 8" transform="matrix(0.966, 0.259, -0.259, 0.966, 1456.704, 3462.075)" fill="currentColor">
      <path d="M 59.36963653564453 101.9571838378906 C 58.35000610351562 101.9571990966797 57.34372329711914 101.7881393432617 56.37870788574219 101.4546966552734 C 55.09809494018555 101.0122146606445 53.76177978515625 100.7878570556641 52.40687942504883 100.7878570556641 C 51.05197906494141 100.7878570556641 49.71566390991211 101.0122146606445 48.43506622314453 101.4546966552734 C 47.47023773193359 101.7880859375 46.46390914916992 101.9571380615234 45.44403839111328 101.9571838378906 C 43.33860778808594 101.9572982788086 41.28086471557617 101.2242126464844 39.64985275268555 99.89299774169922 L 39.60650634765625 99.85759735107422 C 37.51449203491211 98.15010070800781 34.8758659362793 97.17803955078125 32.17642211914062 97.12025451660156 L 32.13848114013672 97.11943817138672 C 30.59002304077148 97.08628082275391 29.06406593322754 96.65693664550781 27.72555160522461 95.87781524658203 C 26.38702201843262 95.09868621826172 25.26009368896484 93.98382568359375 24.46659278869629 92.65378570556641 L 24.37439346313477 92.49923706054688 C 23.0035514831543 90.20151519775391 20.87770843505859 88.39596557617188 18.38843727111816 87.41516876220703 L 18.24739456176758 87.35961151123047 C 16.81956481933594 86.79702758789062 15.54583644866943 85.87605285644531 14.56402206420898 84.69632720947266 C 13.58222198486328 83.51659393310547 12.90789413452148 82.09678649902344 12.61393642425537 80.59037017822266 L 12.55422210693359 80.28428649902344 C 12.04703617095947 77.68515777587891 10.67786502838135 75.28466796875 8.698893547058105 73.52500915527344 L 8.484893798828125 73.33472442626953 C 6.156308174133301 71.26418304443359 5.046236515045166 68.18897247314453 5.515465259552002 65.10851287841797 L 5.574265003204346 64.72242736816406 C 5.970365047454834 62.12189865112305 5.498965263366699 59.41565322875977 4.246879577636719 57.10224151611328 L 4.065822124481201 56.76775360107422 C 2.587950944900513 54.03713989257812 2.587950944900513 50.77666854858398 4.065850734710693 48.04601287841797 L 4.246865272521973 47.71155548095703 C 5.498965263366699 45.39811325073242 5.970365047454834 42.69186782836914 5.5742506980896 40.09135437011719 L 5.515450954437256 39.70532608032227 C 5.04622220993042 36.62483978271484 6.156293869018555 33.54961013793945 8.484879493713379 31.47908401489258 L 8.698836326599121 31.28884124755859 C 10.67783641815186 29.52915382385254 12.04700756072998 27.12866973876953 12.55417919158936 24.52955436706543 L 12.61392211914062 24.22345542907715 C 12.90787982940674 22.71701240539551 13.58220767974854 21.29719734191895 14.56400775909424 20.11748313903809 C 15.54580783843994 18.9377555847168 16.81953620910645 18.01679801940918 18.24752235412598 17.45413970947266 L 18.38845062255859 17.39861106872559 C 20.87770843505859 16.41781234741211 23.0035514831543 14.61225509643555 24.37436485290527 12.31456851959229 L 24.46655082702637 12.16004085540771 C 25.26008033752441 10.82995510101318 26.38700866699219 9.715097427368164 27.72553634643555 8.935969352722168 C 29.06405067443848 8.156840324401855 30.58999443054199 7.727497577667236 32.13842391967773 7.694340229034424 L 32.17588043212891 7.693554878234863 C 34.87583541870117 7.635740280151367 37.51445007324219 6.663669109344482 39.60620880126953 4.956397533416748 L 39.64992141723633 4.920711994171143 C 41.28070831298828 3.589668989181519 43.33847808837891 2.8565833568573 45.44409561157227 2.8565833568573 C 46.46377944946289 2.8565833568573 47.4700813293457 3.025640487670898 48.43505096435547 3.359068870544434 C 49.71563720703125 3.801554679870605 51.05195236206055 4.025926113128662 52.40686416625977 4.025926113128662 C 53.76174926757812 4.025926113128662 55.09804916381836 3.801554679870605 56.3786506652832 3.35908317565918 C 57.34365081787109 3.025654554367065 58.3499641418457 2.8565833568573 59.36965179443359 2.8565833568573 C 61.47526550292969 2.8565833568573 63.53303527832031 3.589668989181519 65.16390991210938 4.920768737792969 L 65.20767974853516 4.956497669219971 C 67.29927825927734 6.663654804229736 69.93789672851562 7.635725975036621 72.63732147216797 7.693526268005371 L 72.67530822753906 7.694340229034424 C 74.22374725341797 7.72748327255249 75.74971008300781 8.156826019287109 77.08821868896484 8.935955047607422 C 78.42675018310547 9.715083122253418 79.55368041992188 10.82994079589844 80.34718322753906 12.15999794006348 L 80.43937683105469 12.31452655792236 C 81.8101806640625 14.61222648620605 83.93601989746094 16.41778373718262 86.42532348632812 17.39859771728516 L 86.56629180908203 17.45413970947266 C 87.99420928955078 18.01676940917969 89.26795196533203 18.9377269744873 90.24974822998047 20.11745452880859 C 91.23155212402344 21.29718399047852 91.90587615966797 22.71699714660645 92.19983673095703 24.22341156005859 L 92.25955200195312 24.52949714660645 C 92.76673889160156 27.12864112854004 94.13592529296875 29.52912521362305 96.11487579345703 31.28878402709961 L 96.32888031005859 31.47905540466309 C 98.65746307373047 33.54959869384766 99.76753997802734 36.62482452392578 99.29830932617188 39.70526885986328 L 99.23950958251953 40.09135437011719 C 98.84340667724609 42.6918830871582 99.31481170654297 45.39812469482422 100.56689453125 47.71154022216797 L 100.7479095458984 48.04599761962891 C 102.2258377075195 50.77665328979492 102.2258377075195 54.03712463378906 100.7479248046875 56.76776885986328 L 100.5669097900391 57.10221099853516 C 99.31481170654297 59.41566848754883 98.84339141845703 62.12191009521484 99.23950958251953 64.72244262695312 L 99.29830932617188 65.10848236083984 C 99.76752471923828 68.18897247314453 98.65746307373047 71.26418304443359 96.32888031005859 73.33469390869141 L 96.11487579345703 73.52499389648438 C 94.13592529296875 75.28463745117188 92.76673889160156 77.68511199951172 92.25956726074219 80.28422546386719 L 92.19982147216797 80.59042358398438 C 91.90587615966797 82.09678649902344 91.23155212402344 83.51659393310547 90.24974822998047 84.69632720947266 C 89.26793670654297 85.87603759765625 87.99420928955078 86.79701232910156 86.56623840332031 87.35965728759766 L 86.42537689208984 87.41513824462891 C 83.93605041503906 88.39596557617188 81.81021118164062 90.20152282714844 80.43939208984375 92.49922943115234 L 80.34723663330078 92.65369415283203 C 79.55368041992188 93.98382568359375 78.42675018310547 95.09868621826172 77.08821868896484 95.87781524658203 C 75.74971008300781 96.65693664550781 74.22374725341797 97.08628082275391 72.67533874511719 97.11943817138672 L 72.63730621337891 97.12025451660156 C 69.93790435791016 97.17803955078125 67.29927825927734 98.15010070800781 65.20753479003906 99.85739898681641 L 65.16387939453125 99.89301300048828 C 63.5330810546875 101.2240829467773 61.47529220581055 101.9571533203125 59.36963653564453 101.9571838378906 Z" stroke="none"/>
      <path d="M 59.36963272094727 4.356575012207031 C 58.51704788208008 4.356575012207031 57.67555618286133 4.497962951660156 56.86852645874023 4.776824951171875 C 55.42995452880859 5.273880004882812 53.9288330078125 5.525917053222656 52.40686416625977 5.525917053222656 C 50.88491058349609 5.525917053222656 49.38380432128906 5.273880004882812 47.94514083862305 4.776809692382812 C 47.13809585571289 4.497947692871094 46.29664993286133 4.356575012207031 45.44412612915039 4.356590270996094 C 43.68310928344727 4.356605529785156 41.962158203125 4.969680786132812 40.59834289550781 6.082809448242188 L 40.55469512939453 6.118438720703125 C 38.20494079589844 8.036300659179688 35.24088287353516 9.128265380859375 32.20864868164062 9.19317626953125 L 32.17049407958984 9.193992614746094 C 30.87561798095703 9.221710205078125 29.59949493408203 9.580772399902344 28.48012542724609 10.23234558105469 C 27.36075592041016 10.8839111328125 26.41832733154297 11.81623840332031 25.75467681884766 12.92863464355469 L 25.66252899169922 13.08308410644531 C 24.12265014648438 15.66416168212891 21.73460388183594 17.69240570068359 18.93826293945312 18.79420471191406 L 18.79740142822266 18.84971618652344 C 16.35097503662109 19.81365203857422 14.58975982666016 21.92991638183594 14.08617401123047 24.51060485839844 L 14.02642059326172 24.81683349609375 C 13.45668029785156 27.73651123046875 11.91863250732422 30.43305206298828 9.695632934570312 32.40972900390625 L 9.481620788574219 32.60003662109375 C 7.534263610839844 34.33157348632812 6.605941772460938 36.90331268310547 6.998329162597656 39.47934722900391 L 7.057159423828125 39.86550140380859 C 7.502113342285156 42.78675842285156 6.972557067871094 45.82677459716797 5.566078186035156 48.42545318603516 L 5.385017395019531 48.76000595092773 C 4.149078369140625 51.04357528686523 4.149093627929688 53.77022171020508 5.385032653808594 56.05383682250977 L 5.566032409667969 56.38825225830078 C 6.972557067871094 58.98700714111328 7.502113342285156 62.02702331542969 7.057159423828125 64.94827270507812 L 6.998359680175781 65.33438110351562 C 6.60595703125 67.91049957275391 7.534278869628906 70.48223876953125 9.481666564941406 72.21379089355469 L 9.695632934570312 72.404052734375 C 11.91866302490234 74.38076019287109 13.45669555664062 77.07731628417969 14.02643585205078 79.99693298339844 L 14.08617401123047 80.30308532714844 C 14.58979034423828 82.88388061523438 16.35100555419922 85.00014495849609 18.79721832275391 85.96400451660156 L 18.93832397460938 86.01959228515625 C 21.73463439941406 87.12139129638672 24.1226806640625 89.14962005615234 25.66260528564453 91.73078918457031 L 25.75475311279297 91.88525390625 C 26.41834259033203 92.99754333496094 27.36077117919922 93.92987060546875 28.48014068603516 94.58143615722656 C 29.59952545166016 95.23300933837891 30.87563323974609 95.59207153320312 32.17067718505859 95.61978912353516 L 32.20851135253906 95.62060546875 C 35.24089813232422 95.68550109863281 38.20497131347656 96.77745056152344 40.55475616455078 98.69535827636719 L 40.59834289550781 98.73092651367188 C 41.96221923828125 99.84413146972656 43.68313980102539 100.4571914672852 45.44411087036133 100.4571914672852 C 46.29668045043945 100.4571914672852 47.1381721496582 100.315803527832 47.94518661499023 100.0369567871094 C 49.38372421264648 99.53988647460938 50.88486480712891 99.28784942626953 52.40689468383789 99.28784942626953 C 53.92890930175781 99.28784942626953 55.43003463745117 99.53988647460938 56.86858749389648 100.0369415283203 C 57.67561721801758 100.315803527832 58.51709365844727 100.4571914672852 59.36966323852539 100.4571914672852 C 61.13063430786133 100.4571914672852 62.85155487060547 99.84413146972656 64.21542358398438 98.73095703125 L 64.25906372070312 98.69532775878906 C 66.60878753662109 96.7774658203125 69.57284545898438 95.68550109863281 72.60630798339844 95.62055969238281 L 72.64323425292969 95.61978912353516 C 73.93814086914062 95.59207153320312 75.21424865722656 95.23300933837891 76.3336181640625 94.58143615722656 C 77.45298767089844 93.92987060546875 78.39541625976562 92.99754333496094 79.05906677246094 91.88514709472656 L 79.15121459960938 91.73069763183594 C 80.69109344482422 89.14962005615234 83.07913970947266 87.12137603759766 85.87537384033203 86.01962280273438 L 86.01634216308594 85.96406555175781 C 88.4627685546875 85.00014495849609 90.22398376464844 82.88389587402344 90.72758483886719 80.30308532714844 L 90.78732299804688 79.9969482421875 C 91.35706329345703 77.0772705078125 92.89511108398438 74.38072967529297 95.11818695068359 72.40399169921875 L 95.3321533203125 72.2137451171875 C 97.27947998046875 70.48222351074219 98.20780181884766 67.91049957275391 97.81539916992188 65.33432769775391 L 97.75661468505859 64.94833374023438 C 97.31163024902344 62.02703857421875 97.8411865234375 58.98700714111328 99.24771118164062 56.38828277587891 L 99.42874145507812 56.05379104614258 C 100.664665222168 53.77020645141602 100.664665222168 51.04356002807617 99.42874145507812 48.76000595092773 L 99.24772644042969 48.42554473876953 C 97.84120178222656 45.82678985595703 97.3116455078125 42.78675842285156 97.75659942626953 39.86551666259766 L 97.81539916992188 39.47940826416016 C 98.20780181884766 36.90326690673828 97.27947998046875 34.33154296875 95.33218383789062 32.60005187988281 L 95.11812591552734 32.40972900390625 C 92.89509582519531 30.43302154541016 91.35704803466797 27.73646545410156 90.78732299804688 24.81683349609375 L 90.72758483886719 24.51066589355469 C 90.22398376464844 21.92988586425781 88.4627685546875 19.81362152099609 86.01617431640625 18.84963989257812 L 85.87545013427734 18.79417419433594 C 83.07913970947266 17.69239044189453 80.69110870361328 15.66414642333984 79.15127563476562 13.08317565917969 L 79.05900573730469 12.92851257324219 C 78.39541625976562 11.81622314453125 77.45298767089844 10.88389587402344 76.3336181640625 10.23233032226562 C 75.21424865722656 9.580757141113281 73.93812561035156 9.221710205078125 72.64308166503906 9.193992614746094 L 72.60521697998047 9.19317626953125 C 69.57286071777344 9.128265380859375 66.60880279541016 8.036300659179688 64.25901794433594 6.118408203125 L 64.21543884277344 6.082855224609375 C 62.85153961181641 4.969635009765625 61.1306037902832 4.356575012207031 59.36963272094727 4.356575012207031 M 59.36962890625 1.356575012207031 C 61.79231643676758 1.356575012207031 64.18098449707031 2.18231201171875 66.11238861083984 3.758712768554688 L 66.156005859375 3.7943115234375 C 67.99871063232422 5.298332214355469 70.29141235351562 6.142959594726562 72.66943359375 6.193870544433594 L 72.70742797851562 6.194686889648438 C 76.37992858886719 6.273284912109375 79.75331115722656 8.236885070800781 81.63534545898438 11.39146423339844 L 81.72755432128906 11.5460205078125 C 82.93574523925781 13.57112884521484 84.78121948242188 15.13855743408203 86.97520446777344 16.00302124023438 L 87.11609649658203 16.05854797363281 C 90.50294494628906 17.39300537109375 92.97486114501953 20.36323547363281 93.67205047607422 23.93611145019531 L 93.73178863525391 24.24223327636719 C 94.17904663085938 26.53428649902344 95.36646270751953 28.61606597900391 97.11160278320312 30.16783905029297 L 97.32559967041016 30.35811614990234 C 100.0244979858398 32.75789642333984 101.3250350952148 36.36082458496094 100.7812042236328 39.93115997314453 L 100.7224044799805 40.31722259521484 C 100.3729705810547 42.61129760742188 100.7815246582031 44.95676040649414 101.8860778808594 46.99757385253906 L 102.0670928955078 47.3320198059082 C 103.7807540893555 50.49826812744141 103.7807540893555 54.31549835205078 102.0670928955078 57.48174667358398 L 101.8860778808594 57.81620788574219 C 100.7815246582031 59.85700607299805 100.3729553222656 62.20246887207031 100.7224044799805 64.49655914306641 L 100.7812042236328 64.88260650634766 C 101.3250350952148 68.45292663574219 100.0244979858398 72.05586242675781 97.32559967041016 74.45565032958984 L 97.11160278320312 74.64592742919922 C 95.36646270751953 76.19768524169922 94.17904663085938 78.27947998046875 93.73178863525391 80.57151794433594 L 93.67205047607422 80.87765502929688 C 92.97486114501953 84.45053100585938 90.50296020507812 87.42076110839844 87.11609649658203 88.75521850585938 L 86.97518920898438 88.81074523925781 C 84.78121948242188 89.67520904541016 82.93574523925781 91.24263763427734 81.72755432128906 93.26774597167969 L 81.63534545898438 93.42230224609375 C 79.75331115722656 96.57688140869141 76.37994384765625 98.54046630859375 72.70744323730469 98.61909484863281 L 72.66943359375 98.61989593505859 C 70.29141235351562 98.67080688476562 67.99871063232422 99.51543426513672 66.15602111816406 101.0194549560547 L 66.11240386962891 101.0550537109375 C 63.24972152709961 103.3915634155273 59.38136672973633 104.0792236328125 55.88883209228516 102.8724517822266 C 53.63297271728516 102.0929946899414 51.18080139160156 102.0929946899414 48.92495727539062 102.8724517822266 L 48.92494201660156 102.8724517822266 C 45.43239974975586 104.0792236328125 41.56405258178711 103.3915634155273 38.70138549804688 101.0550537109375 L 38.65776824951172 101.0194549560547 C 36.8150634765625 99.51543426513672 34.5223388671875 98.67080688476562 32.14432525634766 98.61991119384766 L 32.1063232421875 98.61909484863281 C 28.43383026123047 98.54046630859375 25.06044769287109 96.57688140869141 23.17842102050781 93.42230224609375 L 23.08621978759766 93.26774597167969 C 21.87803649902344 91.24263763427734 20.03253936767578 89.67520904541016 17.83856964111328 88.81074523925781 L 17.69766235351562 88.75523376464844 C 14.31082153320312 87.42076110839844 11.83891296386719 84.45053100585938 11.14170837402344 80.87765502929688 L 11.08197021484375 80.571533203125 C 10.63471221923828 78.27949523925781 9.447296142578125 76.19771575927734 7.702156066894531 74.64594268798828 L 7.488174438476562 74.45566558837891 C 4.789276123046875 72.05587768554688 3.488723754882812 68.45295715332031 4.032554626464844 64.88262176513672 L 4.091354370117188 64.49655914306641 C 4.440788269042969 62.20248413085938 4.032234191894531 59.85703659057617 2.927680969238281 57.81622314453125 L 2.746665954589844 57.48176193237305 C 1.033004760742188 54.31551361083984 1.033004760742188 50.49828338623047 2.746665954589844 47.33205413818359 L 2.927680969238281 46.99757385253906 C 4.032218933105469 44.9567756652832 4.440788269042969 42.61131286621094 4.091354370117188 40.31723785400391 L 4.032539367675781 39.93117523193359 C 3.48870849609375 36.36085510253906 4.789260864257812 32.75792694091797 7.4881591796875 30.35813140869141 L 7.702140808105469 30.16785430908203 C 9.447280883789062 28.61609649658203 10.63469696044922 26.5343017578125 11.08195495605469 24.24227142333984 L 11.14167785644531 23.93614196777344 C 11.83888244628906 20.36326599121094 14.31078338623047 17.39303588867188 17.6976318359375 16.05856323242188 L 17.83855438232422 16.00303649902344 C 20.03252410888672 15.13857269287109 21.87800598144531 13.57114410400391 23.08618927001953 11.54603576660156 L 23.17840576171875 11.3914794921875 C 25.06043243408203 8.236900329589844 28.43381500244141 6.273300170898438 32.10629272460938 6.194686889648438 L 32.14430999755859 6.193870544433594 C 34.52232360839844 6.142959594726562 36.81503295898438 5.298332214355469 38.65773773193359 3.7943115234375 L 38.70135498046875 3.758712768554688 C 41.56401824951172 1.422218322753906 45.4323844909668 0.7345504760742188 48.92491149902344 1.941314697265625 L 48.92494201660156 1.941314697265625 C 51.18077850341797 2.720771789550781 53.6329345703125 2.720771789550781 55.88878631591797 1.941314697265625 L 55.88881683349609 1.941299438476562 C 57.02500152587891 1.548721313476562 58.20146179199219 1.356575012207031 59.36962890625 1.356575012207031 Z" stroke="none" fill="currentColor"/>
    </g>
    <g id="Group_1315" data-name="Group 1315" transform="matrix(0.966, 0.259, -0.259, 0.966, 1467.561, 3493.107)">
      <path id="Path_24956" data-name="Path 24956" d="M.062,23.042V21.076l3.51-.437V3.619L0,3.682V1.763L6.646.328V20.639l3.495.437v1.966Zm21.044.328a6.542,6.542,0,0,1-5.289-2.324q-1.95-2.324-1.95-6.661V9q0-4.337,1.934-6.669A6.487,6.487,0,0,1,21.076,0a6.55,6.55,0,0,1,5.3,2.332Q28.33,4.665,28.33,9v5.382q0,4.353-1.934,6.669A6.523,6.523,0,0,1,21.107,23.37Zm0-2.4a3.543,3.543,0,0,0,3.1-1.5,7.764,7.764,0,0,0,1.053-4.462V8.346a7.6,7.6,0,0,0-1.069-4.438,3.59,3.59,0,0,0-3.112-1.49A3.539,3.539,0,0,0,18,3.908a7.647,7.647,0,0,0-1.061,4.438v6.661a7.638,7.638,0,0,0,1.076,4.454A3.566,3.566,0,0,0,21.107,20.967Zm18.86,2.4a6.542,6.542,0,0,1-5.289-2.324q-1.95-2.324-1.95-6.661V9q0-4.337,1.934-6.669A6.487,6.487,0,0,1,39.936,0a6.55,6.55,0,0,1,5.3,2.332Q47.19,4.665,47.19,9v5.382q0,4.353-1.934,6.669A6.523,6.523,0,0,1,39.967,23.37Zm0-2.4a3.543,3.543,0,0,0,3.1-1.5,7.764,7.764,0,0,0,1.053-4.462V8.346a7.6,7.6,0,0,0-1.069-4.438,3.59,3.59,0,0,0-3.112-1.49,3.539,3.539,0,0,0-3.073,1.49A7.647,7.647,0,0,0,35.8,8.346v6.661a7.638,7.638,0,0,0,1.076,4.454A3.566,3.566,0,0,0,39.967,20.967Zm16.317.359-1.7-1.045L65.676,2.527l1.7,1.045ZM66.612,23.37a4.882,4.882,0,0,1-2.5-.616,4.267,4.267,0,0,1-1.638-1.677,4.912,4.912,0,0,1-.577-2.387V17.473a4.88,4.88,0,0,1,.577-2.371,4.337,4.337,0,0,1,1.63-1.685,4.76,4.76,0,0,1,2.473-.624,4.85,4.85,0,0,1,2.48.616,4.322,4.322,0,0,1,1.646,1.677,4.859,4.859,0,0,1,.585,2.387v1.217a4.912,4.912,0,0,1-.577,2.387,4.282,4.282,0,0,1-1.63,1.677A4.807,4.807,0,0,1,66.612,23.37Zm0-1.9a2.119,2.119,0,0,0,1.778-.8,3.12,3.12,0,0,0,.624-1.973V17.473a3.077,3.077,0,0,0-.64-1.966,2.154,2.154,0,0,0-1.794-.811,2.111,2.111,0,0,0-1.778.811,3.128,3.128,0,0,0-.624,1.966v1.217a3.094,3.094,0,0,0,.632,1.973A2.158,2.158,0,0,0,66.612,21.466Zm-11-10.9a4.85,4.85,0,0,1-2.48-.616,4.337,4.337,0,0,1-1.646-1.669A4.815,4.815,0,0,1,50.9,5.9V4.7a4.912,4.912,0,0,1,.577-2.387A4.337,4.337,0,0,1,53.11.624,4.76,4.76,0,0,1,55.583,0a4.882,4.882,0,0,1,2.5.616A4.253,4.253,0,0,1,59.717,2.3,4.957,4.957,0,0,1,60.294,4.7V5.9a4.867,4.867,0,0,1-.577,2.379,4.3,4.3,0,0,1-1.63,1.669A4.807,4.807,0,0,1,55.614,10.562Zm0-1.9a2.133,2.133,0,0,0,1.771-.8A3.062,3.062,0,0,0,58.016,5.9V4.7a3.109,3.109,0,0,0-.64-1.973A2.146,2.146,0,0,0,55.583,1.9a2.1,2.1,0,0,0-1.778.819A3.161,3.161,0,0,0,53.18,4.7V5.9a3.07,3.07,0,0,0,.632,1.958A2.158,2.158,0,0,0,55.614,8.658Z" transform="translate(0.34 0)" fill="#fff"/>
      <path id="Path_24955" data-name="Path 24955" d="M1.261,1.1A.83.83,0,0,0,1,1.473,1.379,1.379,0,0,0,.938,1.9a.577.577,0,0,0,.2.419,1.6,1.6,0,0,0,.52.323,5.3,5.3,0,0,0,.737.232l.842.207q.429.106.842.242a3.106,3.106,0,0,1,.737.348,1.4,1.4,0,0,1,.716,1.241,1.644,1.644,0,0,1-.7,1.433,3.325,3.325,0,0,1-1.942.494A3.376,3.376,0,0,1,.747,6.255,2.064,2.064,0,0,1,0,4.762H.787a1.241,1.241,0,0,0,.666,1.049A2.887,2.887,0,0,0,2.9,6.124q1.877,0,1.877-1.18a.731.731,0,0,0-.338-.636,3,3,0,0,0-.848-.383q-.51-.151-1.1-.283a6.9,6.9,0,0,1-1.1-.338A2.521,2.521,0,0,1,.54,2.759,1.234,1.234,0,0,1,.2,1.846,1.645,1.645,0,0,1,.827.515,2.924,2.924,0,0,1,2.714,0,2.973,2.973,0,0,1,4.681.585a1.744,1.744,0,0,1,.676,1.322H4.581A1.288,1.288,0,0,0,3.511.807a3.068,3.068,0,0,0-.853-.1A2.739,2.739,0,0,0,1.8.822,1.584,1.584,0,0,0,1.261,1.1ZM12.733,6.76H11.9l-.817-1.937H7.769L6.952,6.76H6.114L8.949.081H9.9ZM10.786,4.127,9.423.868,8.061,4.127ZM18.524.807H16.193V6.76h-.757V.807H13.106V.081h5.418ZM20.441,6.76h-.757V.081h.757Zm2.6-5.655a.83.83,0,0,0-.257.368,1.379,1.379,0,0,0-.066.429.577.577,0,0,0,.2.419,1.6,1.6,0,0,0,.52.323,5.3,5.3,0,0,0,.737.232l.842.207q.429.106.842.242a3.106,3.106,0,0,1,.737.348,1.4,1.4,0,0,1,.716,1.241,1.644,1.644,0,0,1-.7,1.433,3.325,3.325,0,0,1-1.942.494,3.376,3.376,0,0,1-2.139-.585,2.064,2.064,0,0,1-.747-1.493h.787a1.241,1.241,0,0,0,.666,1.049,2.887,2.887,0,0,0,1.443.313q1.877,0,1.877-1.18a.731.731,0,0,0-.338-.636,3,3,0,0,0-.848-.383q-.51-.151-1.1-.283a6.9,6.9,0,0,1-1.1-.338,2.521,2.521,0,0,1-.848-.545,1.234,1.234,0,0,1-.338-.913A1.645,1.645,0,0,1,22.61.515,2.924,2.924,0,0,1,24.5,0a2.973,2.973,0,0,1,1.967.585,1.744,1.744,0,0,1,.676,1.322h-.777a1.288,1.288,0,0,0-1.069-1.1,3.068,3.068,0,0,0-.853-.1,2.739,2.739,0,0,0-.858.116A1.584,1.584,0,0,0,23.044,1.1Zm6.4-.3V3.128h3.622v.737H29.441v2.9h-.757V.081h4.823V.807ZM40.6,6.76h-.837l-.817-1.937H35.636L34.819,6.76h-.837L36.816.081h.948ZM38.652,4.127,37.29.868,35.928,4.127ZM44.625,6.1a2.167,2.167,0,0,0,2.058-1.342h.8a2.994,2.994,0,0,1-1.1,1.493,3.223,3.223,0,0,1-1.927.585,3.054,3.054,0,0,1-2.371-1,3.5,3.5,0,0,1-.858-2.421A3.5,3.5,0,0,1,42.083,1a3.054,3.054,0,0,1,2.371-1,3.223,3.223,0,0,1,1.927.585,2.994,2.994,0,0,1,1.1,1.493h-.8A2.167,2.167,0,0,0,44.625.737a2.987,2.987,0,0,0-1.191.207,2.257,2.257,0,0,0-.8.57,2.76,2.76,0,0,0-.656,1.907,2.76,2.76,0,0,0,.656,1.907A2.511,2.511,0,0,0,44.625,6.1Zm8.929-5.3H51.224V6.76h-.757V.807H48.136V.081h5.418ZM55.471,6.76h-.757V.081h.757ZM60.274,0a3.249,3.249,0,0,1,2.452,1,3.342,3.342,0,0,1,.938,2.421,3.342,3.342,0,0,1-.938,2.421,3.508,3.508,0,0,1-4.9,0,3.342,3.342,0,0,1-.938-2.421A3.341,3.341,0,0,1,57.822,1,3.249,3.249,0,0,1,60.274,0Zm0,6.1A2.534,2.534,0,0,0,62.2,5.327a2.663,2.663,0,0,0,.706-1.907A2.663,2.663,0,0,0,62.2,1.513a2.779,2.779,0,0,0-3.854,0,2.663,2.663,0,0,0-.706,1.907,2.663,2.663,0,0,0,.706,1.907A2.534,2.534,0,0,0,60.274,6.1ZM70.838.081V6.76H69.96L65.833,1.12V6.76h-.757V.081h.878L70.081,5.7V.081Z" transform="translate(0 28.053)" fill="#fff"/>
      <path id="Path_24954" data-name="Path 24954" d="M3.666,8.149a3.718,3.718,0,0,1-1.964-.5A3.3,3.3,0,0,1,.441,6.269,4.534,4.534,0,0,1,0,4.221V4.009A4.728,4.728,0,0,1,.438,1.917,3.408,3.408,0,0,1,1.665.509,3.317,3.317,0,0,1,3.5,0,5.211,5.211,0,0,1,5.091.226,3.652,3.652,0,0,1,6.31.87V2.562H5.26l-.174-1.1a1.827,1.827,0,0,0-.609-.283,3.208,3.208,0,0,0-.859-.1,1.959,1.959,0,0,0-1.178.367,2.378,2.378,0,0,0-.789,1.023A3.873,3.873,0,0,0,1.371,4v.223A3.876,3.876,0,0,0,1.64,5.728a2.2,2.2,0,0,0,.789,1,2.194,2.194,0,0,0,1.265.354,3.59,3.59,0,0,0,.835-.087,2.806,2.806,0,0,0,.617-.218V5.211L3.851,5.135V4.161H6.517V7.305a4,4,0,0,1-1.15.6A5.174,5.174,0,0,1,3.666,8.149Zm7.806,0A3.641,3.641,0,0,1,9.9,7.825a2.484,2.484,0,0,1-1.069-.933,2.712,2.712,0,0,1-.383-1.474v-4.3L7.583.957V.114h3.1V.957l-.865.163v4.3a1.879,1.879,0,0,0,.207.922A1.32,1.32,0,0,0,10.6,6.9a1.959,1.959,0,0,0,.876.185,2.016,2.016,0,0,0,.895-.185,1.336,1.336,0,0,0,.587-.555,1.856,1.856,0,0,0,.209-.925v-4.3L12.3.957V.114h3.1V.957l-.859.163v4.3A2.733,2.733,0,0,1,14.156,6.9a2.444,2.444,0,0,1-1.074.927A3.814,3.814,0,0,1,11.472,8.149Zm4.27-.114V7.2l.577-.082,2.622-7h1.333l2.589,7,.577.082v.838H20.92V7.2l.566-.1-.419-1.246H18.119l-.43,1.246.571.1v.838ZM18.478,4.8h2.236L19.686,1.866l-.071-.212h-.033l-.076.223Zm5.831,3.237V7.2l.865-.163V1.121L24.309.957V.114H27.97a3.8,3.8,0,0,1,1.523.275,2.118,2.118,0,0,1,.963.786,2.219,2.219,0,0,1,.332,1.235,2.209,2.209,0,0,1-.329,1.213,2.195,2.195,0,0,1-.919.8,3.25,3.25,0,0,1-1.384.3l-1.61.016v2.3l.865.163v.838Zm5.151,0L27.948,4.39l1.284-.212,1.284,2.878.62.131v.849ZM26.545,3.672H27.91a1.743,1.743,0,0,0,1.142-.313,1.126,1.126,0,0,0,.37-.911,1.227,1.227,0,0,0-.359-.927,1.524,1.524,0,0,0-1.093-.345H26.545Zm5.521,4.363V7.2l.577-.082,2.622-7H36.6l2.589,7,.577.082v.838H37.244V7.2l.566-.1-.419-1.246H34.443l-.43,1.246.571.1v.838ZM34.8,4.8h2.236L36.01,1.866l-.071-.212h-.033l-.076.223Zm5.837,3.237V7.2l.865-.163V1.121L40.638.957V.114H42.89L46.524,5.9l.033-.011V1.121l-1-.163V.114h3.1V.957l-.865.163V8.034h-1.3L42.771,2.274l-.033.005V7.033l1,.163v.838Zm10.8,0V7.2l.865-.163V1.164H50.707l-.12,1.012H49.559V.114h6.859V2.176H55.385l-.12-1.012H53.672V7.034l.865.163v.838Zm5.934,0V7.2l.865-.163V1.121L57.37.957V.114H63.4v2.04H62.337l-.092-.985H59.606V3.411h2.78V4.471h-2.78V6.99h2.785l.092-1.006h1.055V8.034Zm7.332,0V7.2l.865-.163V1.121L64.7.957V.114h6.033v2.04H69.669l-.092-.985H66.938V3.411h2.78V4.471h-2.78V6.99h2.785l.092-1.006h1.055V8.034Z" transform="translate(0.105 41.072)" fill="#fff"/>
    </g>
  </g>
</svg>
